<svg xmlns="http://www.w3.org/2000/svg" width="48" height="48" viewBox="0 0 48 48"><defs><filter id="glow" x="-35%" y="-35%" width="170%" height="170%"><feGaussianBlur stdDeviation="1.35"/></filter></defs><path d="M9 34 L15 28 M20 20 L26 14 M27 34 L34 27 M33 16 L39 10 M7 9 L13 15 M35 35 L41 41" fill="none" stroke="#0a2034" stroke-width="5.5" stroke-linecap="round" stroke-linejoin="round"/><path d="M9 34 L15 28 M20 20 L26 14 M27 34 L34 27 M33 16 L39 10 M7 9 L13 15 M35 35 L41 41" fill="none" stroke="#148bcb" stroke-opacity=".5" stroke-width="4.1" stroke-linecap="round" stroke-linejoin="round" filter="url(#glow)"/><path d="M9 34 L15 28 M20 20 L26 14 M27 34 L34 27 M33 16 L39 10 M7 9 L13 15 M35 35 L41 41" fill="none" stroke="#37e8ff" stroke-width="2.7" stroke-linecap="round" stroke-linejoin="round"/></svg>