<svg xmlns="http://www.w3.org/2000/svg" width="48" height="48" viewBox="0 0 48 48"><defs><filter id="glow" x="-35%" y="-35%" width="170%" height="170%"><feGaussianBlur stdDeviation="1.35"/></filter></defs><path d="M6 3 L7 35 L15 28 L20 41 L26 38 L20 25 L32 23 Z" fill="#f7fdff" stroke="#0a2034" stroke-width="2.5" stroke-linejoin="round" filter="url(#glow)"/><path d="M6 3 L7 35 L15 28 L20 41 L26 38 L20 25 L32 23 Z" fill="#f7fdff" stroke="#0a2034" stroke-width="1.5" stroke-linejoin="round"/><path d="M33 8 Q33 3 38 3 Q43 3 43 8 Q43 11 39 14 L39 17" fill="none" stroke="#0a2034" stroke-width="5.1" stroke-linecap="round" stroke-linejoin="round"/><path d="M33 8 Q33 3 38 3 Q43 3 43 8 Q43 11 39 14 L39 17" fill="none" stroke="#148bcb" stroke-opacity=".5" stroke-width="3.6999999999999997" stroke-linecap="round" stroke-linejoin="round" filter="url(#glow)"/><path d="M33 8 Q33 3 38 3 Q43 3 43 8 Q43 11 39 14 L39 17" fill="none" stroke="#37e8ff" stroke-width="2.3" stroke-linecap="round" stroke-linejoin="round"/><circle cx="39" cy="22" r="1.7" fill="#37e8ff" filter="url(#glow)"/></svg>